<svg width="29" height="22" viewBox="0 0 29 22" fill="none" xmlns="http://www.w3.org/2000/svg">
<g id="&#240;&#159;&#166;&#134; icon &#34;Line Horizontal 3&#34;">
<g id="Group">
<path id="Vector" d="M0.0964355 1.37516C0.0964355 0.615687 0.696852 0 1.43749 0H27.3645C28.1051 0 28.7056 0.615687 28.7056 1.37516C28.7056 2.13463 28.1051 2.75032 27.3645 2.75032H1.43749C0.696852 2.75032 0.0964355 2.13463 0.0964355 1.37516Z" fill="white"/>
<path id="Vector_2" d="M0.0964355 10.5429C0.0964355 9.78347 0.696852 9.16779 1.43749 9.16779H27.3645C28.1051 9.16779 28.7056 9.78347 28.7056 10.5429C28.7056 11.3024 28.1051 11.9181 27.3645 11.9181H1.43749C0.696852 11.9181 0.0964355 11.3024 0.0964355 10.5429Z" fill="white"/>
<path id="Vector_3" d="M1.43749 18.3354C0.696852 18.3354 0.0964355 18.9512 0.0964355 19.7106C0.0964355 20.4701 0.696852 21.0858 1.43749 21.0858H27.3645C28.1051 21.0858 28.7056 20.4701 28.7056 19.7106C28.7056 18.9512 28.1051 18.3354 27.3645 18.3354H1.43749Z" fill="white"/>
</g>
</g>
</svg>
