<svg width="51" height="51" viewBox="0 0 51 51" fill="none" xmlns="http://www.w3.org/2000/svg">
<path d="M2.16791 0C0.970616 0 0 0.939892 0 2.09929C0 3.25868 0.970616 4.19857 2.16791 4.19857H3.23322C4.20115 4.19857 5.05179 4.81992 5.31771 5.72114L12.1924 29.0209C12.9901 31.7245 15.5421 33.5886 18.4459 33.5886H38.2549C40.9141 33.5886 43.3057 32.0207 44.2934 29.6297L50.6857 14.155C51.8247 11.3971 49.7271 8.39714 46.6599 8.39714H10.6166L9.48669 4.56771C8.68898 1.86404 6.137 0 3.23322 0H2.16791ZM16.3614 27.8674L11.8554 12.5957H46.6599L40.2676 28.0704C39.9385 28.8674 39.1412 29.39 38.2549 29.39H18.4459C17.4779 29.39 16.6273 28.7687 16.3614 27.8674Z" fill="white"/>
<path d="M19.5113 50.3829C23.1032 50.3829 26.015 47.5631 26.015 44.085C26.015 40.6069 23.1032 37.7871 19.5113 37.7871C15.9194 37.7871 13.0076 40.6069 13.0076 44.085C13.0076 47.5631 15.9194 50.3829 19.5113 50.3829ZM19.5113 46.1843C18.314 46.1843 17.3434 45.2442 17.3434 44.085C17.3434 42.9258 18.314 41.9857 19.5113 41.9857C20.7086 41.9857 21.6792 42.9258 21.6792 44.085C21.6792 45.2442 20.7086 46.1843 19.5113 46.1843Z" fill="white"/>
<path d="M36.8544 50.3829C40.4462 50.3829 43.3582 47.5631 43.3582 44.085C43.3582 40.6069 40.4462 37.7871 36.8544 37.7871C33.2625 37.7871 30.3507 40.6069 30.3507 44.085C30.3507 47.5631 33.2625 50.3829 36.8544 50.3829ZM36.8544 46.1843C35.6573 46.1843 34.6865 45.2442 34.6865 44.085C34.6865 42.9258 35.6573 41.9857 36.8544 41.9857C38.0516 41.9857 39.0223 42.9258 39.0223 44.085C39.0223 45.2442 38.0516 46.1843 36.8544 46.1843Z" fill="white"/>
</svg>
