<svg width="44" height="44" viewBox="0 0 44 44" fill="none" xmlns="http://www.w3.org/2000/svg">
<path d="M35.4324 21.6701C39.9483 21.6701 43.6091 24.5807 43.6091 28.1711C43.6091 33.0082 41.1072 36.8836 37.0015 39.5037C32.9608 42.0824 27.5451 43.3401 21.8046 43.3401C16.0641 43.3401 10.6484 42.0824 6.6076 39.5037C2.50191 36.8836 0 33.0082 0 28.1711C0 24.792 3.24276 22.0149 7.38914 21.6998L8.1766 21.6701H35.4324ZM35.4324 26.0041H8.1766C6.67149 26.0041 5.45114 26.9743 5.45114 28.1711C5.45114 31.7116 7.2202 34.3372 10.0197 36.1238C12.8842 37.9518 17.008 39.0061 21.8046 39.0061C26.6011 39.0061 30.7249 37.9518 33.5894 36.1238C36.3889 34.3372 38.158 31.7116 38.158 28.1711C38.158 27.1073 37.1938 26.2225 35.9223 26.039L35.4324 26.0041ZM21.8046 0C27.8257 0 32.7068 3.88081 32.7068 8.66803C32.7068 13.4552 27.8257 17.3361 21.8046 17.3361C15.7834 17.3361 10.9023 13.4552 10.9023 8.66803C10.9023 3.88081 15.7834 0 21.8046 0ZM21.8046 4.33401C18.794 4.33401 16.3534 6.27444 16.3534 8.66803C16.3534 11.0616 18.794 13.002 21.8046 13.002C24.8151 13.002 27.2557 11.0616 27.2557 8.66803C27.2557 6.27444 24.8151 4.33401 21.8046 4.33401Z" fill="white"/>
</svg>
