<svg width="32" height="24" viewBox="0 0 32 24" fill="none" xmlns="http://www.w3.org/2000/svg">
<path d="M11.292 10V18C11.292 18.5522 11.9239 19 12.7035 19C13.483 19 14.115 18.5522 14.115 18V10C14.115 9.44772 13.483 9 12.7035 9C11.9239 9 11.292 9.44772 11.292 10Z" fill="white"/>
<path d="M18.3492 9C19.1288 9 19.7607 9.44772 19.7607 10V18C19.7607 18.5522 19.1288 19 18.3492 19C17.5697 19 16.9377 18.5522 16.9377 18V10C16.9377 9.44772 17.5697 9 18.3492 9Z" fill="white"/>
<path d="M21.1724 4H29.6413C30.4207 4 31.0528 4.44772 31.0528 5C31.0528 5.55228 30.4207 6 29.6413 6H28.0816L25.9562 19.5522C25.559 22.0844 22.5381 24 18.942 24H12.1108C8.5147 24 5.49366 22.0844 5.09653 19.5522L2.9711 6H1.41149C0.631953 6 0 5.55228 0 5C0 4.44772 0.631953 4 1.41149 4H9.88043C9.88043 1.79086 12.4082 0 15.5264 0C18.6446 0 21.1724 1.79086 21.1724 4ZM15.5264 2C13.9673 2 12.7034 2.89544 12.7034 4H18.3494C18.3494 2.89544 17.0855 2 15.5264 2ZM5.81147 6L7.90223 19.3312C8.14052 20.8506 9.95313 22 12.1108 22H18.942C21.0996 22 22.9122 20.8506 23.1504 19.3312L25.2414 6H5.81147Z" fill="white"/>
</svg>
